<?xml version="1.0" encoding="utf-8"?><svg viewBox="0 0 28 40" xmlns="http://www.w3.org/2000/svg" xmlns:xlink="http://www.w3.org/1999/xlink"><style>:root>svg{display:none}:root>svg:target{display:block}</style><svg fill="none" viewBox="0 0 28 40" id="right-arrow" xmlns="http://www.w3.org/2000/svg"><path d="M10.91 14a3.09 3.09 0 116.18 0 3.09 3.09 0 01-6.18 0z" fill="#CCB26E"/><path fill-rule="evenodd" clip-rule="evenodd" d="M0 14C0 6.26 6.26 0 14 0s14 6.26 14 14c0 10.5-14 26-14 26S0 24.5 0 14zm15-9a1 1 0 10-2 0v1.636a1 1 0 102 0V5zM8.342 6.927a1 1 0 00-1.415 1.415L8.09 9.503A1 1 0 109.503 8.09L8.342 6.927zm12.73 1.415a1 1 0 10-1.414-1.415L18.496 8.09a1 1 0 001.415 1.414l1.162-1.161zM14 8.909a5.091 5.091 0 100 10.182 5.091 5.091 0 000-10.182zM5 13a1 1 0 100 2h1.636a1 1 0 100-2H5zm16.364 0a1 1 0 000 2H23a1 1 0 100-2h-1.636zm-11.86 6.91a1 1 0 00-1.415-1.413l-1.162 1.161a1 1 0 101.415 1.415l1.161-1.162zm10.407-1.413a1 1 0 00-1.415 1.414l1.162 1.162a1 1 0 001.415-1.415l-1.162-1.162zM15 21.364a1 1 0 00-2 0V23a1 1 0 102 0v-1.636z" fill="#CCB26E"/></svg></svg>